<svg width="35" height="35" viewBox="0 0 35 35" fill="none" xmlns="http://www.w3.org/2000/svg">
<path d="M27.9759 9.65631C28.5646 9.49855 29.0852 9.15153 29.4574 8.66875C29.8294 8.18596 30.0323 7.59419 30.035 6.98468V6.97743C30.035 6.24487 29.744 5.54232 29.2259 5.02433C28.7079 4.50634 28.0053 4.21533 27.2729 4.21533H27.2658C26.6563 4.218 26.0646 4.42102 25.582 4.7931C25.0993 5.16518 24.7522 5.68569 24.5946 6.27439C24.1434 7.90892 23.1683 9.35028 21.8192 10.3775C20.47 11.4046 18.8212 11.9609 17.1255 11.9609C15.4299 11.9609 13.781 11.4046 12.4318 10.3775C11.0827 9.35028 10.1077 7.90892 9.65647 6.27439C9.49863 5.68573 9.15159 5.16531 8.66884 4.79332C8.18609 4.42131 7.59442 4.21838 6.98498 4.21579H6.97774C6.24519 4.21579 5.54263 4.5068 5.02463 5.02479C4.50664 5.54278 4.21564 6.24534 4.21564 6.97789V6.98514C4.21833 7.59458 4.42136 8.18623 4.79344 8.66894C5.16552 9.15162 5.68601 9.49857 6.27469 9.65631C7.90922 10.1075 9.3506 11.0825 10.3778 12.4317C11.4049 13.7808 11.9612 15.4297 11.9612 17.1254C11.9612 18.821 11.4049 20.4698 10.3778 21.8191C9.3506 23.1683 7.90922 24.1432 6.27469 24.5944C5.68604 24.7522 5.1656 25.0991 4.79355 25.5818C4.4215 26.0645 4.21849 26.6561 4.21579 27.2654V27.2727C4.21579 28.0053 4.5068 28.7078 5.02479 29.2259C5.5428 29.7438 6.24533 30.0348 6.97789 30.0348H6.98514C7.59459 30.0322 8.18623 29.8291 8.66893 29.457C9.15162 29.0849 9.49856 28.5644 9.65631 27.9757C10.1076 26.3412 11.0825 24.8999 12.4317 23.8727C13.7808 22.8454 15.4297 22.2893 17.1254 22.2893C18.821 22.2893 20.4699 22.8454 21.8191 23.8727C23.1681 24.8999 24.1432 26.3412 24.5944 27.9757C24.7521 28.5644 25.0991 29.085 25.5818 29.4572C26.0645 29.8292 26.6563 30.0323 27.2658 30.0349H27.273C28.0055 30.0349 28.7081 29.7438 29.226 29.2259C29.744 28.7079 30.0351 28.0053 30.0351 27.2728V27.2654C30.0325 26.6559 29.8294 26.0643 29.4574 25.5816C29.0852 25.099 28.5647 24.7521 27.976 24.5943C26.3416 24.143 24.9002 23.1681 23.873 21.8189C22.8458 20.4697 22.2896 18.8209 22.2896 17.1252C22.2896 15.4295 22.8458 13.7807 23.873 12.4315C24.9002 11.0824 26.3416 10.1074 27.976 9.65616L27.9759 9.65631Z" fill="#AF51C5"/>
<path d="M27.9759 9.65631C28.5646 9.49855 29.0852 9.15153 29.4574 8.66875C29.8294 8.18596 30.0323 7.59419 30.035 6.98468V6.97743C30.035 6.24487 29.744 5.54232 29.2259 5.02433C28.7079 4.50634 28.0053 4.21533 27.2729 4.21533H27.2658C26.6563 4.218 26.0646 4.42102 25.582 4.7931C25.0993 5.16518 24.7522 5.68569 24.5946 6.27439C24.1434 7.90892 23.1683 9.35028 21.8192 10.3775C20.47 11.4046 18.8212 11.9609 17.1255 11.9609C15.4299 11.9609 13.781 11.4046 12.4318 10.3775C11.0827 9.35028 10.1077 7.90892 9.65647 6.27439C9.49863 5.68573 9.15159 5.16531 8.66884 4.79332C8.18609 4.42131 7.59442 4.21838 6.98498 4.21579H6.97774C6.24519 4.21579 5.54263 4.5068 5.02463 5.02479C4.50664 5.54278 4.21564 6.24534 4.21564 6.97789V6.98514C4.21833 7.59458 4.42136 8.18623 4.79344 8.66894C5.16552 9.15162 5.68601 9.49857 6.27469 9.65631C7.90922 10.1075 9.3506 11.0825 10.3778 12.4317C11.4049 13.7808 11.9612 15.4297 11.9612 17.1254C11.9612 18.821 11.4049 20.4698 10.3778 21.8191C9.3506 23.1683 7.90922 24.1432 6.27469 24.5944C5.68604 24.7522 5.1656 25.0991 4.79355 25.5818C4.4215 26.0645 4.21849 26.6561 4.21579 27.2654V27.2727C4.21579 28.0053 4.5068 28.7078 5.02479 29.2259C5.5428 29.7438 6.24533 30.0348 6.97789 30.0348H6.98514C7.59459 30.0322 8.18623 29.8291 8.66893 29.457C9.15162 29.0849 9.49856 28.5644 9.65631 27.9757C10.1076 26.3412 11.0825 24.8999 12.4317 23.8727C13.7808 22.8454 15.4297 22.2893 17.1254 22.2893C18.821 22.2893 20.4699 22.8454 21.8191 23.8727C23.1681 24.8999 24.1432 26.3412 24.5944 27.9757C24.7521 28.5644 25.0991 29.085 25.5818 29.4572C26.0645 29.8292 26.6563 30.0323 27.2658 30.0349H27.273C28.0055 30.0349 28.7081 29.7438 29.226 29.2259C29.744 28.7079 30.0351 28.0053 30.0351 27.2728V27.2654C30.0325 26.6559 29.8294 26.0643 29.4574 25.5816C29.0852 25.099 28.5647 24.7521 27.976 24.5943C26.3416 24.143 24.9002 23.1681 23.873 21.8189C22.8458 20.4697 22.2896 18.8209 22.2896 17.1252C22.2896 15.4295 22.8458 13.7807 23.873 12.4315C24.9002 11.0824 26.3416 10.1074 27.976 9.65616L27.9759 9.65631Z" fill="url(#paint0_linear_1_475)"/>
<path d="M3.61418 1.63604C3.70303 1.7244 3.81721 1.78289 3.94083 1.80335C4.06446 1.82382 4.19138 1.80525 4.30398 1.75023C5.33122 1.25414 6.48706 1.08891 7.61215 1.27732C8.73725 1.46573 9.7762 1.9985 10.5858 2.80218C10.6974 2.91463 10.8482 2.97948 11.0066 2.98311C11.165 2.98673 11.3186 2.92884 11.4352 2.8216C11.4932 2.76629 11.5395 2.69996 11.5714 2.6265C11.6034 2.55303 11.6203 2.47393 11.6213 2.39382C11.6222 2.31372 11.6071 2.23424 11.5769 2.16005C11.5466 2.08587 11.5019 2.01847 11.4452 1.96182C10.458 0.977008 9.18875 0.323851 7.81352 0.0929646C6.43831 -0.137922 5.02533 0.0649103 3.7706 0.67332C3.68518 0.71568 3.61107 0.777798 3.55445 0.854523C3.49783 0.931248 3.46032 1.02037 3.44502 1.11449C3.42973 1.20861 3.4371 1.30502 3.46651 1.39572C3.49593 1.48643 3.54656 1.56881 3.61418 1.63604Z" fill="#AF51C5"/>
<path d="M3.61418 1.63604C3.70303 1.7244 3.81721 1.78289 3.94083 1.80335C4.06446 1.82382 4.19138 1.80525 4.30398 1.75023C5.33122 1.25414 6.48706 1.08891 7.61215 1.27732C8.73725 1.46573 9.7762 1.9985 10.5858 2.80218C10.6974 2.91463 10.8482 2.97948 11.0066 2.98311C11.165 2.98673 11.3186 2.92884 11.4352 2.8216C11.4932 2.76629 11.5395 2.69996 11.5714 2.6265C11.6034 2.55303 11.6203 2.47393 11.6213 2.39382C11.6222 2.31372 11.6071 2.23424 11.5769 2.16005C11.5466 2.08587 11.5019 2.01847 11.4452 1.96182C10.458 0.977008 9.18875 0.323851 7.81352 0.0929646C6.43831 -0.137922 5.02533 0.0649103 3.7706 0.67332C3.68518 0.71568 3.61107 0.777798 3.55445 0.854523C3.49783 0.931248 3.46032 1.02037 3.44502 1.11449C3.42973 1.20861 3.4371 1.30502 3.46651 1.39572C3.49593 1.48643 3.54656 1.56881 3.61418 1.63604Z" fill="url(#paint1_linear_1_475)"/>
<path d="M0.675463 3.76588C0.0677957 5.01657 -0.136769 6.42501 0.0899917 7.79689C0.316752 9.16878 0.963663 10.4365 1.94147 11.4251C2.04429 11.5332 2.18276 11.6003 2.33128 11.6142C2.47978 11.628 2.62828 11.5876 2.74931 11.5005C2.81788 11.4487 2.87454 11.3827 2.91547 11.3072C2.95641 11.2316 2.98066 11.1481 2.98658 11.0624C2.99251 10.9767 2.97998 10.8907 2.94986 10.8102C2.91971 10.7297 2.87266 10.6566 2.81188 10.5959C2.00409 9.78608 1.46811 8.74514 1.27822 7.61723C1.08834 6.4893 1.25394 5.33025 1.75207 4.30064C1.80751 4.18793 1.82638 4.06073 1.80607 3.93678C1.78578 3.81281 1.72729 3.69829 1.6388 3.60915C1.57152 3.54147 1.48908 3.49081 1.3983 3.46138C1.30753 3.43196 1.21104 3.42459 1.11685 3.43991C1.02267 3.45525 0.933489 3.4928 0.856724 3.5495C0.77996 3.60618 0.717819 3.68037 0.675463 3.76588Z" fill="#AF51C5"/>
<path d="M0.675463 3.76588C0.0677957 5.01657 -0.136769 6.42501 0.0899917 7.79689C0.316752 9.16878 0.963663 10.4365 1.94147 11.4251C2.04429 11.5332 2.18276 11.6003 2.33128 11.6142C2.47978 11.628 2.62828 11.5876 2.74931 11.5005C2.81788 11.4487 2.87454 11.3827 2.91547 11.3072C2.95641 11.2316 2.98066 11.1481 2.98658 11.0624C2.99251 10.9767 2.97998 10.8907 2.94986 10.8102C2.91971 10.7297 2.87266 10.6566 2.81188 10.5959C2.00409 9.78608 1.46811 8.74514 1.27822 7.61723C1.08834 6.4893 1.25394 5.33025 1.75207 4.30064C1.80751 4.18793 1.82638 4.06073 1.80607 3.93678C1.78578 3.81281 1.72729 3.69829 1.6388 3.60915C1.57152 3.54147 1.48908 3.49081 1.3983 3.46138C1.30753 3.43196 1.21104 3.42459 1.11685 3.43991C1.02267 3.45525 0.933489 3.4928 0.856724 3.5495C0.77996 3.60618 0.717819 3.68037 0.675463 3.76588Z" fill="url(#paint2_linear_1_475)"/>
<path d="M29.9473 32.5006C28.9197 32.9968 27.7635 33.162 26.6381 32.9732C25.5128 32.7846 24.4736 32.2514 23.6641 31.4473C23.5526 31.3354 23.4024 31.2708 23.2446 31.2673C23.0866 31.2636 22.9336 31.3212 22.8172 31.428C22.759 31.4832 22.7124 31.5496 22.6802 31.6231C22.6482 31.6966 22.6311 31.7758 22.63 31.8561C22.6289 31.9364 22.644 32.0161 22.6742 32.0904C22.7044 32.1648 22.7493 32.2323 22.806 32.289C23.7932 33.2738 25.0625 33.9269 26.4377 34.1579C27.8128 34.3887 29.2259 34.1859 30.4806 33.5775C30.566 33.5351 30.6401 33.473 30.6968 33.3963C30.7534 33.3195 30.7909 33.2305 30.8061 33.1363C30.8214 33.0421 30.814 32.9457 30.7845 32.855C30.7551 32.7643 30.7044 32.682 30.6367 32.6148C30.548 32.5265 30.4338 32.4681 30.3102 32.4476C30.1867 32.4271 30.0598 32.4456 29.9473 32.5006Z" fill="#AF51C5"/>
<path d="M29.9473 32.5006C28.9197 32.9968 27.7635 33.162 26.6381 32.9732C25.5128 32.7846 24.4736 32.2514 23.6641 31.4473C23.5526 31.3354 23.4024 31.2708 23.2446 31.2673C23.0866 31.2636 22.9336 31.3212 22.8172 31.428C22.759 31.4832 22.7124 31.5496 22.6802 31.6231C22.6482 31.6966 22.6311 31.7758 22.63 31.8561C22.6289 31.9364 22.644 32.0161 22.6742 32.0904C22.7044 32.1648 22.7493 32.2323 22.806 32.289C23.7932 33.2738 25.0625 33.9269 26.4377 34.1579C27.8128 34.3887 29.2259 34.1859 30.4806 33.5775C30.566 33.5351 30.6401 33.473 30.6968 33.3963C30.7534 33.3195 30.7909 33.2305 30.8061 33.1363C30.8214 33.0421 30.814 32.9457 30.7845 32.855C30.7551 32.7643 30.7044 32.682 30.6367 32.6148C30.548 32.5265 30.4338 32.4681 30.3102 32.4476C30.1867 32.4271 30.0598 32.4456 29.9473 32.5006Z" fill="url(#paint3_linear_1_475)"/>
<path d="M31.428 22.8168C31.3212 22.9331 31.2636 23.0862 31.2673 23.2441C31.2708 23.4019 31.3354 23.5524 31.4473 23.6636C32.252 24.4738 32.7854 25.5139 32.9736 26.6401C33.1619 27.7665 32.9957 28.9234 32.4983 29.9513C32.4431 30.0639 32.4245 30.1909 32.4448 30.3147C32.4653 30.4384 32.5237 30.5528 32.6122 30.6417C32.6794 30.7093 32.7617 30.7599 32.8523 30.7895C32.9429 30.8189 33.0392 30.8263 33.1334 30.8111C33.2274 30.7958 33.3166 30.7585 33.3932 30.7019C33.4699 30.6454 33.5322 30.5714 33.5746 30.486C34.1849 29.231 34.389 27.817 34.1588 26.4407C33.9286 25.0642 33.2753 23.7937 32.2898 22.8055C32.2331 22.7487 32.1654 22.7038 32.091 22.6735C32.0165 22.6431 31.9369 22.628 31.8566 22.6291C31.7761 22.6302 31.6969 22.6473 31.6232 22.6796C31.5496 22.7118 31.4833 22.7584 31.428 22.8168Z" fill="#AF51C5"/>
<path d="M31.428 22.8168C31.3212 22.9331 31.2636 23.0862 31.2673 23.2441C31.2708 23.4019 31.3354 23.5524 31.4473 23.6636C32.252 24.4738 32.7854 25.5139 32.9736 26.6401C33.1619 27.7665 32.9957 28.9234 32.4983 29.9513C32.4431 30.0639 32.4245 30.1909 32.4448 30.3147C32.4653 30.4384 32.5237 30.5528 32.6122 30.6417C32.6794 30.7093 32.7617 30.7599 32.8523 30.7895C32.9429 30.8189 33.0392 30.8263 33.1334 30.8111C33.2274 30.7958 33.3166 30.7585 33.3932 30.7019C33.4699 30.6454 33.5322 30.5714 33.5746 30.486C34.1849 29.231 34.389 27.817 34.1588 26.4407C33.9286 25.0642 33.2753 23.7937 32.2898 22.8055C32.2331 22.7487 32.1654 22.7038 32.091 22.6735C32.0165 22.6431 31.9369 22.628 31.8566 22.6291C31.7761 22.6302 31.6969 22.6473 31.6232 22.6796C31.5496 22.7118 31.4833 22.7584 31.428 22.8168Z" fill="url(#paint4_linear_1_475)"/>
<path d="M32.4994 4.30144C32.9964 5.32914 33.162 6.48578 32.9736 7.61167C32.7851 8.73756 32.2517 9.7772 31.4473 10.5871C31.3354 10.6984 31.2708 10.8487 31.2673 11.0065C31.2636 11.1644 31.3212 11.3175 31.428 11.4338C31.4832 11.492 31.5496 11.5386 31.6231 11.5708C31.6966 11.6029 31.7758 11.6201 31.8561 11.6211C31.9364 11.6222 32.0159 11.6072 32.0904 11.5769C32.1646 11.5467 32.2323 11.5019 32.289 11.4452C33.2742 10.4575 33.9276 9.18752 34.1582 7.81161C34.3889 6.43573 34.1855 5.02214 33.5761 3.76714C33.5337 3.68175 33.4715 3.60771 33.3947 3.55115C33.318 3.49458 33.2289 3.45713 33.1348 3.44191C33.0407 3.42668 32.9443 3.43409 32.8537 3.46356C32.7629 3.49303 32.6806 3.54368 32.6134 3.61133C32.5251 3.70024 32.4665 3.81448 32.446 3.93815C32.4257 4.06184 32.4443 4.18881 32.4994 4.30144Z" fill="#AF51C5"/>
<path d="M32.4994 4.30144C32.9964 5.32914 33.162 6.48578 32.9736 7.61167C32.7851 8.73756 32.2517 9.7772 31.4473 10.5871C31.3354 10.6984 31.2708 10.8487 31.2673 11.0065C31.2636 11.1644 31.3212 11.3175 31.428 11.4338C31.4832 11.492 31.5496 11.5386 31.6231 11.5708C31.6966 11.6029 31.7758 11.6201 31.8561 11.6211C31.9364 11.6222 32.0159 11.6072 32.0904 11.5769C32.1646 11.5467 32.2323 11.5019 32.289 11.4452C33.2742 10.4575 33.9276 9.18752 34.1582 7.81161C34.3889 6.43573 34.1855 5.02214 33.5761 3.76714C33.5337 3.68175 33.4715 3.60771 33.3947 3.55115C33.318 3.49458 33.2289 3.45713 33.1348 3.44191C33.0407 3.42668 32.9443 3.43409 32.8537 3.46356C32.7629 3.49303 32.6806 3.54368 32.6134 3.61133C32.5251 3.70024 32.4665 3.81448 32.446 3.93815C32.4257 4.06184 32.4443 4.18881 32.4994 4.30144Z" fill="url(#paint5_linear_1_475)"/>
<path d="M23.6638 2.80349C24.4737 1.99893 25.5133 1.46561 26.6392 1.27713C27.7651 1.08864 28.9217 1.2543 29.9495 1.75123C30.0621 1.80639 30.1891 1.82505 30.3127 1.80463C30.4365 1.78423 30.5507 1.72575 30.6396 1.63735C30.7072 1.57017 30.7579 1.48783 30.7874 1.39715C30.8168 1.30648 30.8242 1.21008 30.809 1.11597C30.7938 1.02185 30.7564 0.932722 30.6998 0.855971C30.6433 0.779218 30.5692 0.717055 30.4838 0.674635C29.2287 0.0652726 27.8152 -0.138208 26.4393 0.0924455C25.0634 0.3231 23.7934 0.976438 22.8057 1.96175C22.749 2.01851 22.7042 2.08604 22.674 2.16038C22.6438 2.23474 22.6287 2.31438 22.6298 2.39463C22.6308 2.47489 22.6479 2.55411 22.68 2.62764C22.7122 2.70118 22.7587 2.76752 22.817 2.82276C22.9333 2.92949 23.0864 2.98708 23.2443 2.98349C23.4022 2.9799 23.5524 2.91541 23.6638 2.80349Z" fill="#AF51C5"/>
<path d="M23.6638 2.80349C24.4737 1.99893 25.5133 1.46561 26.6392 1.27713C27.7651 1.08864 28.9217 1.2543 29.9495 1.75123C30.0621 1.80639 30.1891 1.82505 30.3127 1.80463C30.4365 1.78423 30.5507 1.72575 30.6396 1.63735C30.7072 1.57017 30.7579 1.48783 30.7874 1.39715C30.8168 1.30648 30.8242 1.21008 30.809 1.11597C30.7938 1.02185 30.7564 0.932722 30.6998 0.855971C30.6433 0.779218 30.5692 0.717055 30.4838 0.674635C29.2287 0.0652726 27.8152 -0.138208 26.4393 0.0924455C25.0634 0.3231 23.7934 0.976438 22.8057 1.96175C22.749 2.01851 22.7042 2.08604 22.674 2.16038C22.6438 2.23474 22.6287 2.31438 22.6298 2.39463C22.6308 2.47489 22.6479 2.55411 22.68 2.62764C22.7122 2.70118 22.7587 2.76752 22.817 2.82276C22.9333 2.92949 23.0864 2.98708 23.2443 2.98349C23.4022 2.9799 23.5524 2.91541 23.6638 2.80349Z" fill="url(#paint6_linear_1_475)"/>
<path d="M10.5873 31.4473C9.7774 32.2517 8.73776 32.7851 7.61187 32.9736C6.48596 33.162 5.32934 32.9964 4.30161 32.4994C4.18901 32.4444 4.06202 32.4257 3.93835 32.4461C3.81466 32.4666 3.70042 32.5251 3.61151 32.6134C3.54388 32.6806 3.49322 32.7629 3.46375 32.8537C3.43429 32.9443 3.42686 33.0408 3.44209 33.1348C3.45733 33.2289 3.49478 33.318 3.55133 33.3948C3.60789 33.4715 3.68194 33.5338 3.76732 33.5761C5.02232 34.1855 6.43591 34.3889 7.81181 34.1582C9.18771 33.9277 10.4577 33.2742 11.4454 32.289C11.5021 32.2323 11.5469 32.1647 11.5771 32.0904C11.6073 32.0161 11.6224 31.9364 11.6213 31.8561C11.6202 31.7758 11.6031 31.6966 11.5709 31.6231C11.5388 31.5496 11.4922 31.4832 11.4339 31.428C11.3177 31.3212 11.1646 31.2636 11.0067 31.2671C10.8489 31.2708 10.6986 31.3352 10.5873 31.4473Z" fill="#AF51C5"/>
<path d="M10.5873 31.4473C9.7774 32.2517 8.73776 32.7851 7.61187 32.9736C6.48596 33.162 5.32934 32.9964 4.30161 32.4994C4.18901 32.4444 4.06202 32.4257 3.93835 32.4461C3.81466 32.4666 3.70042 32.5251 3.61151 32.6134C3.54388 32.6806 3.49322 32.7629 3.46375 32.8537C3.43429 32.9443 3.42686 33.0408 3.44209 33.1348C3.45733 33.2289 3.49478 33.318 3.55133 33.3948C3.60789 33.4715 3.68194 33.5338 3.76732 33.5761C5.02232 34.1855 6.43591 34.3889 7.81181 34.1582C9.18771 33.9277 10.4577 33.2742 11.4454 32.289C11.5021 32.2323 11.5469 32.1647 11.5771 32.0904C11.6073 32.0161 11.6224 31.9364 11.6213 31.8561C11.6202 31.7758 11.6031 31.6966 11.5709 31.6231C11.5388 31.5496 11.4922 31.4832 11.4339 31.428C11.3177 31.3212 11.1646 31.2636 11.0067 31.2671C10.8489 31.2708 10.6986 31.3352 10.5873 31.4473Z" fill="url(#paint7_linear_1_475)"/>
<path d="M1.75146 29.9493C1.25446 28.9215 1.08875 27.765 1.2772 26.639C1.46566 25.5131 1.99899 24.4735 2.80356 23.6636C2.91546 23.5522 2.97997 23.402 2.98356 23.2442C2.98715 23.0862 2.92955 22.9332 2.82283 22.8168C2.76758 22.7586 2.70124 22.712 2.62771 22.6798C2.55417 22.6478 2.47494 22.6306 2.3947 22.6296C2.31445 22.6285 2.23479 22.6436 2.16045 22.6738C2.08611 22.704 2.01856 22.7489 1.96182 22.8056C0.976504 23.7932 0.323159 25.0633 0.0925065 26.4392C-0.138147 27.815 0.0653337 29.2285 0.674696 30.4836C0.717115 30.569 0.77928 30.6431 0.856031 30.6997C0.932783 30.7562 1.02191 30.7937 1.11603 30.8088C1.21015 30.824 1.30654 30.8166 1.39721 30.7872C1.48789 30.7578 1.57023 30.7071 1.63742 30.6394C1.7258 30.5505 1.78427 30.4363 1.80472 30.3125C1.82515 30.1889 1.80654 30.062 1.75146 29.9493Z" fill="#AF51C5"/>
<path d="M1.75146 29.9493C1.25446 28.9215 1.08875 27.765 1.2772 26.639C1.46566 25.5131 1.99899 24.4735 2.80356 23.6636C2.91546 23.5522 2.97997 23.402 2.98356 23.2442C2.98715 23.0862 2.92955 22.9332 2.82283 22.8168C2.76758 22.7586 2.70124 22.712 2.62771 22.6798C2.55417 22.6478 2.47494 22.6306 2.3947 22.6296C2.31445 22.6285 2.23479 22.6436 2.16045 22.6738C2.08611 22.704 2.01856 22.7489 1.96182 22.8056C0.976504 23.7932 0.323159 25.0633 0.0925065 26.4392C-0.138147 27.815 0.0653337 29.2285 0.674696 30.4836C0.717115 30.569 0.77928 30.6431 0.856031 30.6997C0.932783 30.7562 1.02191 30.7937 1.11603 30.8088C1.21015 30.824 1.30654 30.8166 1.39721 30.7872C1.48789 30.7578 1.57023 30.7071 1.63742 30.6394C1.7258 30.5505 1.78427 30.4363 1.80472 30.3125C1.82515 30.1889 1.80654 30.062 1.75146 29.9493Z" fill="url(#paint8_linear_1_475)"/>
<defs>
<linearGradient id="paint0_linear_1_475" x1="12.635" y1="-7.01058" x2="24.7269" y2="44.4251" gradientUnits="userSpaceOnUse">
<stop stop-color="#2F79CB"/>
<stop offset="1" stop-color="#AF51C5"/>
</linearGradient>
<linearGradient id="paint1_linear_1_475" x1="6.10596" y1="-1.29672" x2="6.63938" y2="4.92851" gradientUnits="userSpaceOnUse">
<stop stop-color="#2F79CB"/>
<stop offset="1" stop-color="#AF51C5"/>
</linearGradient>
<linearGradient id="paint2_linear_1_475" x1="0.974391" y1="-0.126442" x2="8.80649" y2="12.036" gradientUnits="userSpaceOnUse">
<stop stop-color="#2F79CB"/>
<stop offset="1" stop-color="#AF51C5"/>
</linearGradient>
<linearGradient id="paint3_linear_1_475" x1="25.2986" y1="29.9699" x2="25.8322" y2="36.1961" gradientUnits="userSpaceOnUse">
<stop stop-color="#2F79CB"/>
<stop offset="1" stop-color="#AF51C5"/>
</linearGradient>
<linearGradient id="paint4_linear_1_475" x1="32.2401" y1="19.0683" x2="40.0835" y2="31.2238" gradientUnits="userSpaceOnUse">
<stop stop-color="#2F79CB"/>
<stop offset="1" stop-color="#AF51C5"/>
</linearGradient>
<linearGradient id="paint5_linear_1_475" x1="32.24" y1="-0.125345" x2="40.0799" y2="12.0281" gradientUnits="userSpaceOnUse">
<stop stop-color="#2F79CB"/>
<stop offset="1" stop-color="#AF51C5"/>
</linearGradient>
<linearGradient id="paint6_linear_1_475" x1="25.2994" y1="-1.29724" x2="25.8328" y2="4.92932" gradientUnits="userSpaceOnUse">
<stop stop-color="#2F79CB"/>
<stop offset="1" stop-color="#AF51C5"/>
</linearGradient>
<linearGradient id="paint7_linear_1_475" x1="6.10404" y1="29.9697" x2="6.63753" y2="36.1964" gradientUnits="userSpaceOnUse">
<stop stop-color="#2F79CB"/>
<stop offset="1" stop-color="#AF51C5"/>
</linearGradient>
<linearGradient id="paint8_linear_1_475" x1="0.972991" y1="19.07" x2="8.81281" y2="31.2236" gradientUnits="userSpaceOnUse">
<stop stop-color="#2F79CB"/>
<stop offset="1" stop-color="#AF51C5"/>
</linearGradient>
</defs>
</svg>
